<mxfile host="65bd71144e">
    <diagram id="5DIWrdhLwUrtFaI1QlfB" name="Page-1">
        <mxGraphModel dx="1596" dy="1063" grid="1" gridSize="10" guides="1" tooltips="1" connect="1" arrows="1" fold="1" page="1" pageScale="1" pageWidth="1169" pageHeight="827" math="1" shadow="0">
            <root>
                <mxCell id="0"/>
                <mxCell id="1" parent="0"/>
                <mxCell id="165" value="" style="edgeStyle=none;orthogonalLoop=1;jettySize=auto;html=1;rounded=0;endArrow=blockThin;startSize=14;endSize=14;sourcePerimeterSpacing=8;targetPerimeterSpacing=8;curved=1;strokeWidth=2;endFill=1;" parent="1" edge="1">
                    <mxGeometry width="140" relative="1" as="geometry">
                        <mxPoint x="240" y="598" as="sourcePoint"/>
                        <mxPoint x="240" y="80" as="targetPoint"/>
                        <Array as="points"/>
                    </mxGeometry>
                </mxCell>
                <mxCell id="169" value="" style="ellipse;whiteSpace=wrap;html=1;" parent="1" vertex="1">
                    <mxGeometry x="471" y="291" width="18" height="18" as="geometry"/>
                </mxCell>
                <mxCell id="172" value="" style="ellipse;whiteSpace=wrap;html=1;fillColor=#dae8fc;strokeColor=#000000;" parent="1" vertex="1">
                    <mxGeometry x="716" y="131" width="18" height="18" as="geometry"/>
                </mxCell>
                <mxCell id="173" value="" style="endArrow=none;html=1;rounded=0;startSize=14;endSize=14;sourcePerimeterSpacing=8;targetPerimeterSpacing=8;curved=1;" parent="1" edge="1">
                    <mxGeometry width="50" height="50" relative="1" as="geometry">
                        <mxPoint x="310" y="598" as="sourcePoint"/>
                        <mxPoint x="889.3483116883118" y="597.1441914191419" as="targetPoint"/>
                        <Array as="points">
                            <mxPoint x="387.5301298701298" y="542.8867656765676"/>
                            <mxPoint x="405.4522077922078" y="452.4577227722773"/>
                            <mxPoint x="459.21844155844144" y="307.7712541254125"/>
                            <mxPoint x="512.9846753246753" y="325.85706270627065"/>
                            <mxPoint x="566.750909090909" y="542.8867656765676"/>
                            <mxPoint x="638.4392207792208" y="524.8009570957096"/>
                            <mxPoint x="692.2054545454545" y="144.99897689768977"/>
                            <mxPoint x="763.8937662337663" y="163.08478547854787"/>
                            <mxPoint x="817.66" y="579.0583828382838"/>
                        </Array>
                    </mxGeometry>
                </mxCell>
                <mxCell id="174" value="&lt;font style=&quot;font-size: 20px;&quot;&gt;Downward&lt;br&gt;Move&lt;/font&gt;" style="edgeLabel;html=1;align=center;verticalAlign=middle;resizable=0;points=[];container=0;" parent="173" vertex="1" connectable="0">
                    <mxGeometry x="0.0868" relative="1" as="geometry">
                        <mxPoint x="-15" as="offset"/>
                    </mxGeometry>
                </mxCell>
                <mxCell id="175" value="&lt;font style=&quot;font-size: 20px;&quot;&gt;Multi-bit&lt;br&gt;Mode&lt;/font&gt;" style="text;html=1;align=center;verticalAlign=middle;resizable=0;points=[];autosize=1;strokeColor=none;fillColor=none;container=0;" parent="1" vertex="1">
                    <mxGeometry x="280.0014285714285" y="432.0035313531354" width="90" height="60" as="geometry"/>
                </mxCell>
                <mxCell id="177" value="" style="edgeStyle=none;orthogonalLoop=1;jettySize=auto;html=1;rounded=0;strokeWidth=1;endArrow=block;endFill=1;startSize=14;endSize=5;sourcePerimeterSpacing=8;targetPerimeterSpacing=8;curved=1;" parent="1" edge="1">
                    <mxGeometry width="140" relative="1" as="geometry">
                        <mxPoint x="310" y="568" as="sourcePoint"/>
                        <mxPoint x="370" y="511" as="targetPoint"/>
                        <Array as="points"/>
                    </mxGeometry>
                </mxCell>
                <mxCell id="178" value="" style="edgeStyle=none;orthogonalLoop=1;jettySize=auto;html=1;rounded=0;strokeWidth=1;endArrow=block;endFill=1;startSize=14;endSize=5;sourcePerimeterSpacing=8;targetPerimeterSpacing=8;curved=1;" parent="1" edge="1">
                    <mxGeometry width="140" relative="1" as="geometry">
                        <mxPoint x="371" y="508" as="sourcePoint"/>
                        <mxPoint x="399" y="439" as="targetPoint"/>
                        <Array as="points"/>
                    </mxGeometry>
                </mxCell>
                <mxCell id="179" value="" style="edgeStyle=none;orthogonalLoop=1;jettySize=auto;html=1;rounded=0;strokeWidth=1;endArrow=block;endFill=1;startSize=14;endSize=5;sourcePerimeterSpacing=8;targetPerimeterSpacing=8;curved=1;" parent="1" edge="1">
                    <mxGeometry width="140" relative="1" as="geometry">
                        <mxPoint x="420" y="373" as="sourcePoint"/>
                        <mxPoint x="429" y="351" as="targetPoint"/>
                        <Array as="points"/>
                    </mxGeometry>
                </mxCell>
                <mxCell id="180" value="" style="edgeStyle=none;orthogonalLoop=1;jettySize=auto;html=1;rounded=0;strokeWidth=1;endArrow=block;endFill=1;startSize=14;endSize=5;sourcePerimeterSpacing=8;targetPerimeterSpacing=8;curved=1;" parent="1" edge="1">
                    <mxGeometry width="140" relative="1" as="geometry">
                        <mxPoint x="430" y="348" as="sourcePoint"/>
                        <mxPoint x="440" y="327" as="targetPoint"/>
                        <Array as="points"/>
                    </mxGeometry>
                </mxCell>
                <mxCell id="181" value="" style="edgeStyle=none;orthogonalLoop=1;jettySize=auto;html=1;rounded=0;strokeWidth=1;endArrow=block;endFill=1;startSize=14;endSize=5;sourcePerimeterSpacing=8;targetPerimeterSpacing=8;curved=1;" parent="1" edge="1">
                    <mxGeometry width="140" relative="1" as="geometry">
                        <mxPoint x="442" y="325" as="sourcePoint"/>
                        <mxPoint x="460" y="308" as="targetPoint"/>
                        <Array as="points"/>
                    </mxGeometry>
                </mxCell>
                <mxCell id="182" value="" style="edgeStyle=none;orthogonalLoop=1;jettySize=auto;html=1;rounded=0;strokeWidth=1;endArrow=block;endFill=1;startSize=14;endSize=5;sourcePerimeterSpacing=8;targetPerimeterSpacing=8;curved=1;" parent="1" edge="1">
                    <mxGeometry width="140" relative="1" as="geometry">
                        <mxPoint x="400" y="434" as="sourcePoint"/>
                        <mxPoint x="419" y="377" as="targetPoint"/>
                        <Array as="points"/>
                    </mxGeometry>
                </mxCell>
                <mxCell id="183" value="&lt;font style=&quot;font-size: 20px;&quot;&gt;Single-bit&lt;br&gt;Mode&lt;/font&gt;" style="text;html=1;align=center;verticalAlign=middle;resizable=0;points=[];autosize=1;strokeColor=none;fillColor=none;container=0;" parent="1" vertex="1">
                    <mxGeometry x="320.0014285714285" y="309.0035313531354" width="110" height="60" as="geometry"/>
                </mxCell>
                <mxCell id="185" value="&lt;font style=&quot;font-size: 20px;&quot;&gt;Trapped&lt;br style=&quot;border-color: var(--border-color);&quot;&gt;search point&lt;/font&gt;" style="text;html=1;align=center;verticalAlign=middle;resizable=0;points=[];autosize=1;strokeColor=none;fillColor=none;container=0;" parent="1" vertex="1">
                    <mxGeometry x="415.0014285714285" y="231.00353135313537" width="130" height="60" as="geometry"/>
                </mxCell>
                <mxCell id="187" value="&lt;font style=&quot;font-size: 28px;&quot;&gt;$$\theta_1$$&lt;/font&gt;" style="text;html=1;align=center;verticalAlign=middle;resizable=0;points=[];autosize=1;strokeColor=none;fillColor=none;container=0;" parent="1" vertex="1">
                    <mxGeometry x="185.0014285714285" y="553.0035313531354" width="190" height="50" as="geometry"/>
                </mxCell>
                <mxCell id="188" value="&lt;font style=&quot;font-size: 28px;&quot;&gt;$$\theta_2$$&lt;/font&gt;" style="text;html=1;align=center;verticalAlign=middle;resizable=0;points=[];autosize=1;strokeColor=none;fillColor=none;container=0;" parent="1" vertex="1">
                    <mxGeometry x="480.0014285714285" y="389.0035313531354" width="190" height="50" as="geometry"/>
                </mxCell>
                <mxCell id="190" value="" style="shape=flexArrow;endArrow=classic;html=1;rounded=0;fontSize=25;startSize=14;endSize=3.0725274725274727;sourcePerimeterSpacing=8;targetPerimeterSpacing=8;curved=1;width=2.0224719101123596;endWidth=11.423632547228054;" parent="1" edge="1">
                    <mxGeometry width="50" height="50" relative="1" as="geometry">
                        <mxPoint x="500.20701298701306" y="307.99976897689754" as="sourcePoint"/>
                        <mxPoint x="639.9992207792209" y="427.36610561056096" as="targetPoint"/>
                    </mxGeometry>
                </mxCell>
                <mxCell id="191" value="&lt;font style=&quot;font-size: 20px;&quot;&gt;Transmitted&lt;br&gt;codeword&lt;/font&gt;" style="text;html=1;align=center;verticalAlign=middle;resizable=0;points=[];autosize=1;strokeColor=none;fillColor=none;container=0;" parent="1" vertex="1">
                    <mxGeometry x="659.9958441558441" y="74" width="130" height="60" as="geometry"/>
                </mxCell>
                <mxCell id="192" value="&lt;font style=&quot;font-size: 28px;&quot;&gt;$$f(x)$$&lt;/font&gt;" style="text;html=1;align=center;verticalAlign=middle;resizable=0;points=[];autosize=1;strokeColor=none;fillColor=none;fontSize=18;" parent="1" vertex="1">
                    <mxGeometry x="230" y="84" width="130" height="50" as="geometry"/>
                </mxCell>
                <mxCell id="196" value="" style="edgeStyle=none;orthogonalLoop=1;jettySize=auto;html=1;rounded=0;endArrow=block;startSize=14;endSize=5;sourcePerimeterSpacing=8;targetPerimeterSpacing=8;curved=1;dashed=1;strokeColor=#FF0000;endFill=1;" edge="1" parent="1">
                    <mxGeometry width="140" relative="1" as="geometry">
                        <mxPoint x="640" y="410" as="sourcePoint"/>
                        <mxPoint x="440" y="320" as="targetPoint"/>
                        <Array as="points">
                            <mxPoint x="560" y="260"/>
                            <mxPoint x="480" y="190"/>
                            <mxPoint x="380" y="280"/>
                        </Array>
                    </mxGeometry>
                </mxCell>
                <mxCell id="197" value="&lt;font style=&quot;font-size: 20px;&quot;&gt;Back to &lt;br&gt;last Move&lt;/font&gt;" style="text;html=1;align=center;verticalAlign=middle;resizable=0;points=[];autosize=1;strokeColor=none;fillColor=none;" vertex="1" parent="1">
                    <mxGeometry x="305" y="210" width="110" height="60" as="geometry"/>
                </mxCell>
            </root>
        </mxGraphModel>
    </diagram>
</mxfile>